<svg width="48" height="48" viewBox="0 0 48 48" fill="none" xmlns="http://www.w3.org/2000/svg">
  <!-- 外圈科技环 -->
  <circle cx="24" cy="24" r="22" stroke="url(#gradient1)" stroke-width="2" fill="none" opacity="0.6"/>
  
  <!-- 内部核心 -->
  <circle cx="24" cy="24" r="16" fill="url(#gradient2)"/>
  
  <!-- 中心图标 -->
  <path d="M18 18h12v12H18z" fill="none" stroke="white" stroke-width="2" stroke-linecap="round" stroke-linejoin="round"/>
  <path d="M21 21h6v6h-6z" fill="white" opacity="0.8"/>
  
  <!-- 科技装饰点 -->
  <circle cx="12" cy="12" r="2" fill="url(#gradient3)" opacity="0.8"/>
  <circle cx="36" cy="12" r="2" fill="url(#gradient3)" opacity="0.8"/>
  <circle cx="12" cy="36" r="2" fill="url(#gradient3)" opacity="0.8"/>
  <circle cx="36" cy="36" r="2" fill="url(#gradient3)" opacity="0.8"/>
  
  <!-- 连接线 -->
  <path d="M14 14L22 22" stroke="url(#gradient4)" stroke-width="1" opacity="0.5"/>
  <path d="M34 14L26 22" stroke="url(#gradient4)" stroke-width="1" opacity="0.5"/>
  <path d="M14 34L22 26" stroke="url(#gradient4)" stroke-width="1" opacity="0.5"/>
  <path d="M34 34L26 26" stroke="url(#gradient4)" stroke-width="1" opacity="0.5"/>
  
  <defs>
    <linearGradient id="gradient1" x1="0%" y1="0%" x2="100%" y2="100%">
      <stop offset="0%" style="stop-color:#60A5FA;stop-opacity:1" />
      <stop offset="100%" style="stop-color:#A855F7;stop-opacity:1" />
    </linearGradient>
    
    <linearGradient id="gradient2" x1="0%" y1="0%" x2="100%" y2="100%">
      <stop offset="0%" style="stop-color:#3B82F6;stop-opacity:1" />
      <stop offset="100%" style="stop-color:#8B5CF6;stop-opacity:1" />
    </linearGradient>
    
    <linearGradient id="gradient3" x1="0%" y1="0%" x2="100%" y2="100%">
      <stop offset="0%" style="stop-color:#06B6D4;stop-opacity:1" />
      <stop offset="100%" style="stop-color:#3B82F6;stop-opacity:1" />
    </linearGradient>
    
    <linearGradient id="gradient4" x1="0%" y1="0%" x2="100%" y2="100%">
      <stop offset="0%" style="stop-color:#60A5FA;stop-opacity:1" />
      <stop offset="100%" style="stop-color:#06B6D4;stop-opacity:1" />
    </linearGradient>
  </defs>
</svg>